<mxfile host="app.diagrams.net" modified="2022-08-29T07:47:20.934Z" agent="5.0 (Macintosh; Intel Mac OS X 10_15_7) AppleWebKit/537.36 (KHTML, like Gecko) Chrome/104.0.0.0 Safari/537.36" etag="7e26bSRfl_EJ-Uxr7rgS" version="20.2.7" type="github">
  <diagram name="Page-1" id="c7558073-3199-34d8-9f00-42111426c3f3">
    <mxGraphModel dx="722" dy="584" grid="1" gridSize="10" guides="1" tooltips="1" connect="1" arrows="1" fold="1" page="1" pageScale="1" pageWidth="826" pageHeight="1169" background="none" math="0" shadow="0">
      <root>
        <mxCell id="0" />
        <mxCell id="1" parent="0" />
        <mxCell id="Wc6figx5cJHX5uXWQaID-100" value="" style="swimlane;startSize=0;strokeWidth=2;shadow=0;swimlaneLine=0;glass=0;rounded=0;" vertex="1" parent="1">
          <mxGeometry x="280" y="200" width="220" height="300" as="geometry" />
        </mxCell>
        <mxCell id="Wc6figx5cJHX5uXWQaID-101" value="" style="rounded=1;whiteSpace=wrap;html=1;fillColor=#1ba1e2;fontColor=#ffffff;strokeColor=#006EAF;" vertex="1" parent="Wc6figx5cJHX5uXWQaID-100">
          <mxGeometry x="40" y="115" width="160" height="70" as="geometry" />
        </mxCell>
        <mxCell id="Wc6figx5cJHX5uXWQaID-102" value="" style="shape=hexagon;perimeter=hexagonPerimeter2;whiteSpace=wrap;html=1;fixedSize=1;fillColor=#60a917;fontColor=#ffffff;strokeColor=#2D7600;" vertex="1" parent="Wc6figx5cJHX5uXWQaID-100">
          <mxGeometry x="50" y="125" width="60" height="50" as="geometry" />
        </mxCell>
        <mxCell id="Wc6figx5cJHX5uXWQaID-110" style="edgeStyle=orthogonalEdgeStyle;rounded=0;orthogonalLoop=1;jettySize=auto;html=1;entryX=0;entryY=0.5;entryDx=0;entryDy=0;" edge="1" parent="1" source="Wc6figx5cJHX5uXWQaID-103" target="Wc6figx5cJHX5uXWQaID-104">
          <mxGeometry relative="1" as="geometry" />
        </mxCell>
        <mxCell id="Wc6figx5cJHX5uXWQaID-103" value="" style="whiteSpace=wrap;html=1;aspect=fixed;strokeWidth=2;" vertex="1" parent="1">
          <mxGeometry x="10" y="320" width="80" height="80" as="geometry" />
        </mxCell>
        <mxCell id="Wc6figx5cJHX5uXWQaID-112" style="edgeStyle=orthogonalEdgeStyle;rounded=0;orthogonalLoop=1;jettySize=auto;html=1;entryX=0.063;entryY=0.643;entryDx=0;entryDy=0;entryPerimeter=0;" edge="1" parent="1" source="Wc6figx5cJHX5uXWQaID-104" target="Wc6figx5cJHX5uXWQaID-101">
          <mxGeometry relative="1" as="geometry" />
        </mxCell>
        <mxCell id="Wc6figx5cJHX5uXWQaID-104" value="" style="whiteSpace=wrap;html=1;aspect=fixed;strokeWidth=1;fillColor=#0050ef;fontColor=#ffffff;strokeColor=#001DBC;" vertex="1" parent="1">
          <mxGeometry x="150" y="320" width="80" height="80" as="geometry" />
        </mxCell>
        <mxCell id="Wc6figx5cJHX5uXWQaID-108" style="edgeStyle=orthogonalEdgeStyle;rounded=0;orthogonalLoop=1;jettySize=auto;html=1;entryX=1;entryY=0.5;entryDx=0;entryDy=0;" edge="1" parent="1" source="Wc6figx5cJHX5uXWQaID-105" target="Wc6figx5cJHX5uXWQaID-101">
          <mxGeometry relative="1" as="geometry" />
        </mxCell>
        <mxCell id="Wc6figx5cJHX5uXWQaID-105" value="Actor" style="shape=umlActor;verticalLabelPosition=bottom;verticalAlign=top;html=1;outlineConnect=0;strokeWidth=2;" vertex="1" parent="1">
          <mxGeometry x="590" y="320" width="30" height="60" as="geometry" />
        </mxCell>
        <mxCell id="Wc6figx5cJHX5uXWQaID-109" value="" style="rounded=1;whiteSpace=wrap;html=1;strokeWidth=2;fillColor=#6a00ff;fontColor=#ffffff;strokeColor=#3700CC;" vertex="1" parent="1">
          <mxGeometry x="240" y="525" width="290" height="45" as="geometry" />
        </mxCell>
      </root>
    </mxGraphModel>
  </diagram>
</mxfile>
